<svg xmlns="http://www.w3.org/2000/svg" width="16" height="16" viewBox="0 0 16 16">
  <path id="Path_104" data-name="Path 104" d="M165.641-14.345l-2.471-2.477a1.286,1.286,0,0,0-1.817.034l-1.245,1.247-.246-.137a12.389,12.389,0,0,1-2.994-2.171,12.486,12.486,0,0,1-2.17-3.006c-.046-.084-.09-.164-.134-.241l.836-.836.411-.412a1.292,1.292,0,0,0,.033-1.821l-2.471-2.477a1.285,1.285,0,0,0-1.816.034l-.7.7.019.019a4.039,4.039,0,0,0-.574,1.014,4.211,4.211,0,0,0-.255,1.029c-.326,2.711.91,5.189,4.264,8.551,4.637,4.647,8.374,4.3,8.535,4.279a4.167,4.167,0,0,0,1.03-.259,4.011,4.011,0,0,0,1.009-.573l.015.014.706-.692A1.3,1.3,0,0,0,165.641-14.345Z" transform="translate(-150 27)" fill="#0067c5"/>
</svg>
